<svg xmlns="http://www.w3.org/2000/svg" viewBox="0 0 360 360.19"><defs><style>.cls-1{fill:#9bccff;}.cls-2{fill:#a1d35f;}.cls-3{fill:#7ac971;}.cls-4{fill:#535452;}.cls-20,.cls-23,.cls-5{fill:none;}.cls-5{stroke:#fff;}.cls-10,.cls-15,.cls-18,.cls-20,.cls-22,.cls-23,.cls-5{stroke-miterlimit:10;}.cls-15,.cls-18,.cls-20,.cls-22,.cls-23,.cls-5{stroke-width:2px;}.cls-6{fill:#262626;}.cls-7{fill:#353131;}.cls-8{fill:#424141;}.cls-9{fill:#595757;}.cls-10,.cls-16{fill:#a09f9f;}.cls-10{stroke:#cccaca;}.cls-11{fill:#cccaca;}.cls-12{fill:#b7332c;}.cls-13{fill:#f28b8b;}.cls-14{fill:#6d1e1d;}.cls-15{fill:#1980ce;}.cls-15,.cls-18,.cls-20{stroke:#000;}.cls-17{fill:#dd5854;}.cls-18{fill:#55a8f2;}.cls-19{fill:#bddcf4;}.cls-21,.cls-22{fill:#878383;}.cls-22,.cls-23{stroke:#a09f9f;}</style></defs><title>menu_car_game_logo</title><g id="Layer_1" data-name="Layer 1"><path id="bg" class="cls-1" d="M357,147.09C341.52,63.4,268.17,0,180,0A180,180,0,0,0,0,180c0,1.81,0,3.61.09,5.41,1.36-.28,19.86-4,47.81-6.91C95.33,134.46,207.43,59.29,357,147.09Z"/><path id="_1" data-name="1" class="cls-2" d="M180,360a179.92,179.92,0,0,0,155.76-89.74C255.54,133.42,5.24,184.34.09,185.41A180,180,0,0,0,180,360Z"/><g id="_2" data-name="2"><path class="cls-3" d="M357,147.09c-56-32.89-106.8-42.91-150.88-40.27-46.87,2.82-86.18,20-116.21,39.13.07.5.1.78.1.78L81.31,153a4,4,0,0,0,.51-1.69A300.25,300.25,0,0,0,47.9,178.5c44.83-4.58,114-6.84,175.86,11.34,45.47,13.36,87,37.77,112,80.42A179.13,179.13,0,0,0,360,180,181.14,181.14,0,0,0,357,147.09Z"/><path class="cls-3" d="M90,146.73s0-.28-.1-.78q-4.16,2.67-8.08,5.36a4,4,0,0,1-.51,1.69Z"/></g></g><g id="r2"><path class="cls-4" d="M222.93,106.44s89.3,33.69,51.68,104.63c0,0,35.46,16.88,56.92,52.4,0,0,58.75-89.77-72.39-153.62C259.14,109.85,234.87,106.89,222.93,106.44Z"/><path class="cls-4" d="M220.15,188.81S112,177,48,248c0,0-19.55,13-29.28,12,0,0,52.45,131.44,210.36,93.22,0,0-126.49-86.92,54.71-136.57C283.79,216.65,253.3,195.61,220.15,188.81Z"/></g><g id="lines"><path class="cls-5" d="M255,115s10,4,17,12"/><path class="cls-5" d="M281,135a70.33,70.33,0,0,1,17,15"/><path class="cls-5" d="M305,162a43.12,43.12,0,0,1,7,26"/><path class="cls-5" d="M310,202s.94,16.63-10,25.81"/><path class="cls-5" d="M239,202s-19,1-37,8"/><path class="cls-5" d="M180,221s-32,7-55,29"/><path class="cls-5" d="M109,274s-25.95,23-35.47,54"/></g><g id="car"><path class="cls-6" d="M61.2,245.43H82.42A9.61,9.61,0,0,1,92,255v2.62A14.33,14.33,0,0,1,77.71,272H65.91a14.33,14.33,0,0,1-14.33-14.33V255a9.61,9.61,0,0,1,9.61-9.61Z" transform="translate(17.9 -4.31) rotate(3.93)"/><path class="cls-6" d="M187.16,254.08h21.22A9.61,9.61,0,0,1,218,263.7v2.62a14.33,14.33,0,0,1-14.33,14.33H191.87a14.33,14.33,0,0,1-14.33-14.33V263.7A9.61,9.61,0,0,1,187.16,254.08Z" transform="matrix(1, 0.07, -0.07, 1, 18.79, -12.93)"/><path class="cls-7" d="M69.06,224.64H266.94a8.14,8.14,0,0,1,8.14,8.14v26.45a8.14,8.14,0,0,1-8.14,8.14H42.61a8.14,8.14,0,0,1-8.14-8.14v0a34.59,34.59,0,0,1,34.59-34.59Z" transform="translate(17.22 -10.03) rotate(3.93)"/><g id="_1-2" data-name="1"><path class="cls-8" d="M147.82,224.75h5.09a18,18,0,0,1,18,18v16.55a18,18,0,0,1-18,18h-5.09a19.39,19.39,0,0,1-19.39-19.39V244.14a19.39,19.39,0,0,1,19.39-19.39Z" transform="translate(17.56 -9.67) rotate(3.93)"/><ellipse class="cls-9" cx="156.63" cy="253.17" rx="24.62" ry="18" transform="translate(-106.68 392.08) rotate(-86.07)"/><ellipse class="cls-10" cx="156.86" cy="252.69" rx="19.82" ry="12.09" transform="translate(-105.99 391.86) rotate(-86.07)"/><ellipse class="cls-11" cx="155.05" cy="252.69" rx="11.09" ry="6.91" transform="translate(-107.67 390.06) rotate(-86.07)"/><ellipse class="cls-9" cx="156.64" cy="252.44" rx="6.95" ry="4.38" transform="translate(-105.94 391.41) rotate(-86.07)"/></g><g id="_2-2" data-name="2"><path class="cls-8" d="M276.09,233.49h5.09a18,18,0,0,1,18,18V268a18,18,0,0,1-18,18h-5.09a19.39,19.39,0,0,1-19.39-19.39V252.88a19.39,19.39,0,0,1,19.39-19.39Z" transform="translate(18.46 -18.44) rotate(3.93)"/><ellipse class="cls-9" cx="284.9" cy="261.91" rx="24.62" ry="18" transform="translate(4.09 528.19) rotate(-86.07)"/><ellipse class="cls-10" cx="285.13" cy="261.43" rx="19.82" ry="12.09" transform="translate(4.78 527.98) rotate(-86.07)"/><ellipse class="cls-11" cx="283.33" cy="261.43" rx="11.09" ry="6.91" transform="translate(3.1 526.17) rotate(-86.07)"/><ellipse class="cls-9" cx="284.91" cy="261.17" rx="6.95" ry="4.38" transform="translate(4.83 527.52) rotate(-86.07)"/></g><path class="cls-12" d="M125.2,144.77s-5.68,4.55-12.79,23.61l-11.92,29.68s-26.25.67-38.86,15.32c0,0-24.34,4.18-28.47,36.12a2.43,2.43,0,0,0,2.56,2.64l76.8,5.29s14.93,1.55,21.61-8.19c0,0,9.62-18,15-20.67,0,0,13.9-8.46,22.47,7.52,0,0,3.23,6.17,6.92,22.75,0,0,0,4.93,3.91,5.63l67.13,4.62s8.68.27,11.6-7.8c0,0,5.6-28.4,21.69-26.65,0,0,18.64,0,20.94,27.38l4.36,0S310,241.18,300,231.64c0,0-4-4.25-6.37-17.41,0,0-6.14-37.26-17.73-46.86,0,0-16.74-15.75-34.94-19.8C241,147.57,157.19,129.36,125.2,144.77Z"/><path class="cls-13" d="M278,227.79a15.2,15.2,0,0,1,15.86,2.46S286.2,225.45,278,227.79Z"/><path class="cls-14" d="M128.46,218s36.19-6.41,44.4,5.29c0,0,11.28,15.67,12.52,24.18,0,0,1.06,4.77,1.1,5.84a2.86,2.86,0,0,0,3.35,2.79l57.29,4s5,.09,6.37-3.58c0,0,7-22.39,10.49-24.52,0,0,8.82-9.59,17.89-8.75s11.31,2.6,15,5.11c0,0-6.41-19.24-6.73-22.48,0,0-4.1-24-13.75-35.9,0,0-19-20.64-49.26-21.59l-22.19-3s-4.57-1.45-8.14,3.63c0,0-11.83,31.56-14.33,44.44l-6,17.63S146.43,208.27,128.46,218Z"/><path class="cls-13" d="M112.47,227s5.58-15.67,32.7-19.61c0,0,14.59-2.84,22.08-2.44L198.4,208l65.18,7.91s13.4,1.16,17.59-3.18c0,0-4.22,8.61-12.82,8.77l-84.16-8.46s-25.8-2.74-40.57-.32C143.62,212.73,121.33,213.56,112.47,227Z"/><rect class="cls-13" x="227.89" y="219.79" width="10.29" height="4.5" rx="2.25" transform="translate(15.77 -15.45) rotate(3.93)"/><path class="cls-15" d="M196.33,158.31l-9.73,33.8s-2.56,6.81,5,7.87l47.68,5.8s5.21,1.64,5.93-1.8l5.2-42.92s-.21-1.63-5-2.44c0,0-33.12-7.27-40.41-5.84C205,152.78,198.27,151.57,196.33,158.31Z"/><path class="cls-15" d="M256.93,164.89l-4.81,39.56s-.76,4,1.83,3.89l8.43,1.54s8.19.47,8.53-6.95c0,0-2.78-25.19-10.61-37.81C260.3,165.12,257.19,162.79,256.93,164.89Z"/><g id="_1-3" data-name="1"><path class="cls-16" d="M191.65,192.46s-6,3.68-9.27,7.2c0,0-1.2,2.11.73,2.26,0,0,4.82-5.77,8.91-7.83Z"/><ellipse class="cls-16" cx="198.23" cy="190.16" rx="8.01" ry="5.69" transform="translate(-71.89 140.25) rotate(-33.34)"/><path class="cls-11" d="M196.56,186.59s3-1.8,5.63-1c0,0,1.78,2.22-1.33,1.76A11.36,11.36,0,0,0,196.56,186.59Z"/></g><g id="_2-3" data-name="2"><polygon class="cls-16" points="101.39 188.43 103.56 190.42 104.47 188.16 102.28 186.12 101.39 188.43"/><ellipse class="cls-16" cx="95.53" cy="183.52" rx="5.69" ry="8.01" transform="translate(-111.07 172.5) rotate(-59.45)"/><path class="cls-11" d="M93.06,186.58s-3-1.92-3.36-4.62c0,0,1.21-2.57,2.17.42A11.44,11.44,0,0,0,93.06,186.58Z"/></g><path class="cls-17" d="M159.94,204.94s-50.47-4.65-58.36-4c0,0-18.41-.94-27.63,5.08,0,0-19.65,7.78-20.51,34.46l34,2.34s8,1.33,20.57-11.08c0,0,8.21-14,11.55-15.71C119.55,216,140.43,203,159.94,204.94Z"/><path class="cls-13" d="M140.66,203.25c-1.75.46-53.52,18.15-81.65,18.53,0,0,6.64-24.1,47.56-21Z"/><rect class="cls-16" x="28.03" y="241.38" width="92.67" height="9.43" rx="4.71" transform="translate(17.04 -4.52) rotate(3.93)"/><rect class="cls-9" x="107.65" y="244.12" width="12.95" height="9.43" rx="4.71" transform="translate(17.32 -7.24) rotate(3.93)"/><path class="cls-11" d="M45.49,237.62a18.22,18.22,0,0,0-2.75,11.57,1.68,1.68,0,0,0,1.35,1.65s1.95.24,2.12-1a23.65,23.65,0,0,1,.53-6.62,20.4,20.4,0,0,1,2.07-4.1s1.18-1.64-.16-2.48C48.65,236.6,47.2,235.75,45.49,237.62Z"/><path class="cls-11" d="M92.92,241.4A18.14,18.14,0,0,0,90.17,253a1.68,1.68,0,0,0,1.34,1.65s1.95.24,2.13-1a23.73,23.73,0,0,1,.53-6.63,21,21,0,0,1,2.06-4.1s1.19-1.63-.15-2.48C96.08,240.38,94.62,239.53,92.92,241.4Z"/><path class="cls-18" d="M125.21,151.81s-12.57,25.9-15.83,35.89c0,0-2.85,6.21.32,7l63.73,3.3s4.44-1.3,5.38-3.33L189.92,155s1.11-4.44-7.18-5.81c0,0-11.46-.88-23.55-1.42-10.95-.49-22.41-.71-26.31.25C132.88,148,127,148,125.21,151.81Z"/><polygon class="cls-19" points="157.38 150.8 128.53 195.64 107.25 193.43 127.49 148.74 159.19 147.74 157.38 150.8"/><path class="cls-20" d="M125.21,151.81s-12.57,25.9-15.83,35.89c0,0-2.85,6.21.32,7l63.73,3.3s4.44-1.3,5.38-3.33L189.92,155s1.11-4.44-7.18-5.81c0,0-11.46-.88-23.55-1.42-10.95-.49-22.41-.71-26.31.25C132.88,148,127,148,125.21,151.81Z"/><g id="_1-4" data-name="1"><path class="cls-21" d="M57.68,218.59s.88-1.82-1.78-3.78l-7.17-.49s4.52,2.24,5.93,11.42C54.66,225.74,57.25,218.61,57.68,218.59Z"/><ellipse class="cls-22" cx="45.93" cy="224.01" rx="9.56" ry="7.89" transform="translate(-180.7 254.48) rotate(-86.07)"/><ellipse class="cls-9" cx="47.87" cy="226.77" rx="5.52" ry="4.69" transform="translate(-183.9 225.36) rotate(-77.73)"/><ellipse class="cls-23" cx="45.94" cy="223.9" rx="9.56" ry="7.89" transform="translate(-180.59 254.39) rotate(-86.07)"/><path class="cls-11" d="M44,218.14a12.35,12.35,0,0,0-2.8,4.84c-1.2,3.41,1.22.25,1.22.25a11.14,11.14,0,0,1,3-3.07s2.41-1,1-2.67A2,2,0,0,0,44,218.14Z"/><path class="cls-11" d="M49.85,225.41s-1.48-.54-1.92.45a3.56,3.56,0,0,0-.09,1.39C48,227.75,50.44,227.86,49.85,225.41Z"/></g><g id="_2-4" data-name="2"><path class="cls-21" d="M122.64,219.45h7.07s5.94,2.59,3.16,10.21l-5.7,7Z"/><ellipse class="cls-22" cx="121.96" cy="229.35" rx="9.56" ry="7.89" transform="translate(-115.21 335.3) rotate(-86.07)"/><ellipse class="cls-9" cx="124.06" cy="232.18" rx="5.52" ry="4.69" transform="translate(-129.18 304.07) rotate(-77.73)"/><ellipse class="cls-23" cx="121.96" cy="229.35" rx="9.56" ry="7.89" transform="translate(-115.21 335.3) rotate(-86.07)"/><path class="cls-11" d="M119.54,223.09a12.28,12.28,0,0,0-2.81,4.84c-1.2,3.41,1.22.25,1.22.25a11.32,11.32,0,0,1,3-3.07s2.41-1,1-2.67A2,2,0,0,0,119.54,223.09Z"/><path class="cls-11" d="M126.56,230.83s-1.48-.53-1.92.46a3.56,3.56,0,0,0-.09,1.39C124.68,233.17,127.14,233.29,126.56,230.83Z"/></g></g></svg>